<svg
    width="639"
    height="502"
    viewBox="0 0 639 502"
    fill="none"
    xmlns="http://www.w3.org/2000/svg">
    <path
        d="M625.644 77.9082L561.092 13.3668C552.537 4.81257 540.925 0 528.817 0H384.058C371.949 0 360.344 4.80627 351.782 13.3668L343.094 22.0471C330.065 35.0738 308.941 35.0738 295.912 22.0471L283.627 9.76372C277.377 3.51494 268.891 0 260.045 0H110.196C98.0872 0 86.4823 4.80627 77.9204 13.3668L13.3689 77.9082C4.80702 86.4687 0 98.0718 0 110.179V479.184C0 491.789 10.2189 502 22.8192 502H387.97C400.57 502 410.789 491.783 410.789 479.184V404.539C410.789 394.788 418.696 386.876 428.449 386.876H438.768C448.521 386.876 456.428 394.782 456.428 404.539V479.184C456.428 491.789 466.647 502 479.247 502H616.181C628.781 502 639 491.783 639 479.184V110.179C639 98.0781 634.193 86.4687 625.631 77.9082H625.644Z"
        fill="white"/>
</svg>