<svg
    width="33"
    height="33"
    viewBox="0 0 33 33"
    fill="none"
    xmlns="http://www.w3.org/2000/svg">
    <path
        d="M33 26.3907L26.3907 33L18.304 24.9133L21.0565 22.1607L22.6117 23.7158L26.4529 19.8591L28.6612 22.0674L26.3907 24.2757L28.0391 25.8308L30.2474 23.6536L33 26.3907ZM8.11781 14.6805L0 6.60933L6.60933 0L9.34637 2.75259L5.50518 6.60933L7.16918 8.25778L10.9948 4.40104L13.2031 6.60933L10.9948 8.80207L12.55 10.3572L8.11781 14.6805ZM19.7036 11.8346L21.1654 13.2809L7.04477 27.386H5.61404V25.9552L19.7036 11.8346ZM25.3176 2.50377C24.9288 2.50377 24.5245 2.64373 24.2135 2.95476L21.352 5.80066L27.1838 11.6324L30.0452 8.72432C30.6517 8.11781 30.6517 7.16918 30.0452 6.53157L26.4062 2.95476C26.1107 2.65928 25.722 2.50377 25.3176 2.50377ZM19.7036 7.4491L2.50377 24.6645V30.4962H8.33553L25.5353 13.2809L19.7036 7.4491Z"
        fill="#0057FF"/>
</svg>