<svg
    width="119"
    height="24"
    viewBox="0 0 119 24"
    fill="none"
    xmlns="http://www.w3.org/2000/svg">
    <path
        d="M12 17.27L18.18 21L16.54 13.97L22 9.24L14.81 8.62L12 2L9.19 8.62L2 9.24L7.45 13.97L5.82 21L12 17.27Z"
        fill="#FFCE20"/>
    <path
        d="M35 17.27L41.18 21L39.54 13.97L45 9.24L37.81 8.62L35 2L32.19 8.62L25 9.24L30.45 13.97L28.82 21L35 17.27Z"
        fill="#FFCE20"/>
    <path
        d="M59 17.27L65.18 21L63.54 13.97L69 9.24L61.81 8.62L59 2L56.19 8.62L49 9.24L54.45 13.97L52.82 21L59 17.27Z"
        fill="#FFCE20"/>
    <path
        d="M83 17.27L89.18 21L87.54 13.97L93 9.24L85.81 8.62L83 2L80.19 8.62L73 9.24L78.45 13.97L76.82 21L83 17.27Z"
        fill="#FFCE20"/>
    <path
        d="M107 17.27L113.18 21L111.54 13.97L117 9.24L109.81 8.62L107 2L104.19 8.62L97 9.24L102.45 13.97L100.82 21L107 17.27Z"
        fill="#FFCE20"/>
</svg>