<svg
    width="42"
    height="31"
    viewBox="0 0 42 31"
    fill="none"
    xmlns="http://www.w3.org/2000/svg">
    <path
        d="M26.7273 0C30.7779 0 34.6625 1.63303 37.5267 4.53984C40.3909 7.44666 42 11.3891 42 15.5C42 19.6109 40.3909 23.5533 37.5267 26.4602C34.6625 29.367 30.7779 31 26.7273 31C22.6767 31 18.792 29.367 15.9278 26.4602C13.0636 23.5533 11.4545 19.6109 11.4545 15.5C11.4545 11.3891 13.0636 7.44666 15.9278 4.53984C18.792 1.63303 22.6767 0 26.7273 0ZM26.7273 3.875C23.6893 3.875 20.7758 5.09977 18.6277 7.27988C16.4795 9.45999 15.2727 12.4169 15.2727 15.5C15.2727 18.5831 16.4795 21.54 18.6277 23.7201C20.7758 25.9002 23.6893 27.125 26.7273 27.125C29.7652 27.125 32.6787 25.9002 34.8269 23.7201C36.975 21.54 38.1818 18.5831 38.1818 15.5C38.1818 12.4169 36.975 9.45999 34.8269 7.27988C32.6787 5.09977 29.7652 3.875 26.7273 3.875ZM24.8182 7.75H27.6818V15.0737L32.13 19.5881L30.1064 21.6419L24.8182 16.275V7.75ZM1.90909 27.125C1.40277 27.125 0.917184 26.9209 0.55916 26.5575C0.201136 26.1942 0 25.7014 0 25.1875C0 24.6736 0.201136 24.1808 0.55916 23.8175C0.917184 23.4541 1.40277 23.25 1.90909 23.25H9.22091C9.81273 24.6256 10.5764 25.9237 11.4545 27.125H1.90909ZM3.81818 17.4375C3.31186 17.4375 2.82627 17.2334 2.46825 16.87C2.11023 16.5067 1.90909 16.0139 1.90909 15.5C1.90909 14.9861 2.11023 14.4933 2.46825 14.13C2.82627 13.7666 3.31186 13.5625 3.81818 13.5625H7.73182L7.63636 15.5L7.73182 17.4375H3.81818ZM5.72727 7.75C5.22095 7.75 4.73537 7.54587 4.37734 7.18252C4.01932 6.81917 3.81818 6.32636 3.81818 5.8125C3.81818 5.29864 4.01932 4.80583 4.37734 4.44248C4.73537 4.07913 5.22095 3.875 5.72727 3.875H11.4545C10.5764 5.07625 9.81273 6.37437 9.22091 7.75H5.72727Z"
        fill="#0057FF"/>
</svg>